<svg width="1356" height="200" viewBox="0 0 1356 200" fill="none" xmlns="http://www.w3.org/2000/svg">
<path d="M0 50C0 22.3858 22.3858 0 50 0H1306C1333.61 0 1356 22.3858 1356 50V100V150C1356 177.614 1333.61 200 1306 200H50C22.3858 200 0 177.614 0 150V100V50Z" fill="#0D1117"/>
<path d="M381.972 75.0819C385.042 81.2077 389.755 86.3584 395.585 89.9579C401.416 93.5573 408.133 95.4633 414.984 95.4628H426.956C428.493 91.113 431.518 87.4468 435.497 85.112C439.476 82.7773 444.152 81.9244 448.699 82.7042C453.246 83.484 457.371 85.8461 460.345 89.3732C463.319 92.9003 464.95 97.3651 464.95 101.978C464.95 106.592 463.319 111.057 460.345 114.584C457.371 118.111 453.246 120.473 448.699 121.253C444.152 122.032 439.476 121.179 435.497 118.845C431.518 116.51 428.493 112.844 426.956 108.494H414.984C408.033 108.503 401.157 107.056 394.798 104.248C388.439 101.439 382.738 97.3313 378.063 92.1876V122.637C382.41 124.174 386.074 127.199 388.407 131.176C390.74 135.153 391.592 139.827 390.812 144.372C390.033 148.916 387.671 153.039 384.146 156.011C380.621 158.983 376.158 160.613 371.547 160.613C366.936 160.613 362.473 158.983 358.948 156.011C355.423 153.039 353.061 148.916 352.282 144.372C351.502 139.827 352.354 135.153 354.687 131.176C357.02 127.199 360.684 124.174 365.031 122.637V76.9758C360.86 75.501 357.313 72.6548 354.969 68.9025C352.625 65.1501 351.623 60.7137 352.128 56.3183C352.632 51.923 354.613 47.8288 357.746 44.705C360.879 41.5812 364.979 39.6126 369.376 39.121C373.772 38.6295 378.206 39.6441 381.951 41.9989C385.697 44.3537 388.532 47.9095 389.995 52.085C391.458 56.2604 391.461 60.8085 390.003 64.9858C388.546 69.1631 385.714 72.7224 381.972 75.0819ZM371.547 147.588C373.275 147.588 374.932 146.901 376.154 145.679C377.376 144.457 378.063 142.8 378.063 141.072C378.063 139.344 377.376 137.687 376.154 136.465C374.932 135.243 373.275 134.557 371.547 134.557C369.819 134.557 368.162 135.243 366.94 136.465C365.718 137.687 365.031 139.344 365.031 141.072C365.031 142.8 365.718 144.457 366.94 145.679C368.162 146.901 369.819 147.588 371.547 147.588ZM445.391 108.494C447.119 108.494 448.776 107.808 449.998 106.586C451.22 105.364 451.906 103.706 451.906 101.978C451.906 100.25 451.22 98.5931 449.998 97.3711C448.776 96.1492 447.119 95.4628 445.391 95.4628C443.663 95.4628 442.005 96.1492 440.783 97.3711C439.562 98.5931 438.875 100.25 438.875 101.978C438.875 103.706 439.562 105.364 440.783 106.586C442.005 107.808 443.663 108.494 445.391 108.494ZM378.063 58.5409C378.057 56.8147 377.366 55.1614 376.143 53.9439C374.919 52.7263 373.262 52.0441 371.536 52.047C369.81 52.0499 368.155 52.7376 366.936 53.9592C365.716 55.1808 365.031 56.8364 365.031 58.5626C365.031 60.2888 365.716 61.9444 366.936 63.166C368.155 64.3876 369.81 65.0754 371.536 65.0782C373.262 65.0811 374.919 64.3989 376.143 63.1814C377.366 61.9638 378.057 60.3105 378.063 58.5843V58.5409Z" fill="white"/>
<path d="M202.009 60.6602C202.01 57.1284 202.996 53.6649 204.859 50.6482C206.722 47.6314 209.391 45.1776 212.574 43.5547C215.756 41.9319 219.33 41.2025 222.905 41.4464C226.48 41.6902 229.918 42.8979 232.843 44.9374C235.769 46.9769 238.069 49.7697 239.493 53.0107C240.917 56.2517 241.409 59.8161 240.917 63.3143C240.424 66.8125 238.966 70.11 236.7 72.8463C234.435 75.5827 231.45 77.6526 228.071 78.8298V123.834C232.421 125.349 236.087 128.331 238.422 132.253C240.757 136.175 241.61 140.783 240.83 145.265C240.05 149.747 237.688 153.812 234.161 156.743C230.634 159.674 226.169 161.281 221.556 161.281C216.942 161.281 212.477 159.674 208.95 156.743C205.423 153.812 203.061 149.747 202.281 145.265C201.502 140.783 202.355 136.175 204.689 132.253C207.024 128.331 210.69 125.349 215.04 123.834V78.8298C211.228 77.5015 207.928 75.0408 205.594 71.7867C203.26 68.5326 202.008 64.6452 202.009 60.6602ZM251.328 59.1446L272.143 38.6289C272.447 38.3287 272.834 38.1243 273.256 38.0413C273.678 37.9584 274.115 38.0008 274.512 38.1632C274.91 38.3255 275.249 38.6005 275.488 38.9532C275.726 39.3059 275.853 39.7205 275.852 40.1445V54.2383H284.54C290.3 54.2383 295.824 56.4936 299.897 60.5081C303.971 64.5225 306.259 69.9673 306.259 75.6446V123.834C310.608 125.349 314.275 128.331 316.609 132.253C318.944 136.175 319.797 140.783 319.017 145.265C318.238 149.747 315.875 153.812 312.348 156.743C308.821 159.674 304.356 161.281 299.743 161.281C295.13 161.281 290.665 159.674 287.138 156.743C283.611 153.812 281.249 149.747 280.469 145.265C279.689 140.783 280.542 136.175 282.877 132.253C285.211 128.331 288.878 125.349 293.227 123.834V75.6446C293.227 73.3737 292.312 71.1958 290.683 69.59C289.054 67.9842 286.844 67.0821 284.54 67.0821H275.852V81.176C275.853 81.5999 275.726 82.0145 275.488 82.3672C275.249 82.72 274.91 82.9949 274.512 83.1573C274.115 83.3196 273.678 83.362 273.256 83.2791C272.834 83.1962 272.447 82.9917 272.143 82.6915L251.328 62.1758C251.125 61.9769 250.965 61.7407 250.855 61.4806C250.746 61.2206 250.69 60.9418 250.69 60.6602C250.69 60.3786 250.746 60.0998 250.855 59.8398C250.965 59.5797 251.125 59.3435 251.328 59.1446ZM221.556 54.2383C219.828 54.2383 218.17 54.9149 216.948 56.1193C215.726 57.3236 215.04 58.957 215.04 60.6602C215.04 62.3634 215.726 63.9968 216.948 65.2012C218.17 66.4055 219.828 67.0821 221.556 67.0821C223.284 67.0821 224.941 66.4055 226.163 65.2012C227.385 63.9968 228.071 62.3634 228.071 60.6602C228.071 58.957 227.385 57.3236 226.163 56.1193C224.941 54.9149 223.284 54.2383 221.556 54.2383ZM221.556 135.582C219.828 135.582 218.17 136.259 216.948 137.463C215.726 138.667 215.04 140.301 215.04 142.004C215.04 143.707 215.726 145.341 216.948 146.545C218.17 147.749 219.828 148.426 221.556 148.426C223.284 148.426 224.941 147.749 226.163 146.545C227.385 145.341 228.071 143.707 228.071 142.004C228.071 140.301 227.385 138.667 226.163 137.463C224.941 136.259 223.284 135.582 221.556 135.582ZM293.227 142.004C293.227 143.707 293.914 145.341 295.136 146.545C296.358 147.749 298.015 148.426 299.743 148.426C301.471 148.426 303.128 147.749 304.35 146.545C305.572 145.341 306.259 143.707 306.259 142.004C306.259 140.301 305.572 138.667 304.35 137.463C303.128 136.259 301.471 135.582 299.743 135.582C298.015 135.582 296.358 136.259 295.136 137.463C293.914 138.667 293.227 140.301 293.227 142.004Z" fill="white"/>
<path d="M130.227 60.2598C130.228 56.7281 131.2 53.2645 133.037 50.2478C134.873 47.2311 137.504 44.7772 140.64 43.1543C143.777 41.5315 147.3 40.8021 150.823 41.046C154.346 41.2898 157.735 42.4975 160.618 44.537C163.502 46.5765 165.769 49.3693 167.172 52.6103C168.576 55.8513 169.061 59.4157 168.576 62.9139C168.09 66.4121 166.652 69.7096 164.42 72.4459C162.187 75.1823 159.245 77.2522 155.915 78.4294V83.8067C155.915 89.484 153.66 94.9287 149.645 98.9432C145.631 102.958 140.186 105.213 134.509 105.213H100.259C97.9877 105.213 95.8098 106.115 94.204 107.721C92.5982 109.327 91.6961 111.505 91.6961 113.775V123.434C95.9833 124.949 99.5968 127.931 101.898 131.852C104.199 135.774 105.04 140.383 104.271 144.865C103.503 149.346 101.174 153.412 97.698 156.343C94.2217 159.273 89.8212 160.881 85.2742 160.881C80.7273 160.881 76.3267 159.273 72.8504 156.343C69.3741 153.412 67.0459 149.346 66.2774 144.865C65.5088 140.383 66.3494 135.774 68.6505 131.852C70.9517 127.931 74.5652 124.949 78.8524 123.434V78.4294C74.5676 76.9145 70.9563 73.9337 68.6568 70.0137C66.3573 66.0937 65.5175 61.487 66.2861 57.0078C67.0546 52.5285 69.3818 48.4652 72.8565 45.5359C76.3312 42.6066 80.7295 41 85.2742 41C89.8189 41 94.2173 42.6066 97.6919 45.5359C101.167 48.4652 103.494 52.5285 104.262 57.0078C105.031 61.487 104.191 66.0937 101.892 70.0137C99.5921 73.9337 95.9809 76.9145 91.6961 78.4294V94.1502C94.3968 92.9719 97.3121 92.3655 100.259 92.3692H134.509C136.78 92.3692 138.957 91.4671 140.563 89.8613C142.169 88.2555 143.071 86.0776 143.071 83.8067V78.4294C139.314 77.1011 136.061 74.6404 133.761 71.3863C131.461 68.1322 130.226 64.2448 130.227 60.2598ZM78.8524 60.2598C78.8524 61.963 79.5289 63.5964 80.7333 64.8008C81.9376 66.0051 83.571 66.6817 85.2742 66.6817C86.9774 66.6817 88.6108 66.0051 89.8152 64.8008C91.0195 63.5964 91.6961 61.963 91.6961 60.2598C91.6961 58.5566 91.0195 56.9232 89.8152 55.7189C88.6108 54.5145 86.9774 53.8379 85.2742 53.8379C83.571 53.8379 81.9376 54.5145 80.7333 55.7189C79.5289 56.9232 78.8524 58.5566 78.8524 60.2598ZM149.493 53.8379C147.79 53.8379 146.156 54.5145 144.952 55.7189C143.748 56.9232 143.071 58.5566 143.071 60.2598C143.071 61.963 143.748 63.5964 144.952 64.8008C146.156 66.0051 147.79 66.6817 149.493 66.6817C151.196 66.6817 152.83 66.0051 154.034 64.8008C155.238 63.5964 155.915 61.963 155.915 60.2598C155.915 58.5566 155.238 56.9232 154.034 55.7189C152.83 54.5145 151.196 53.8379 149.493 53.8379ZM85.2742 135.182C83.571 135.182 81.9376 135.858 80.7333 137.063C79.5289 138.267 78.8524 139.9 78.8524 141.604C78.8524 143.307 79.5289 144.94 80.7333 146.145C81.9376 147.349 83.571 148.025 85.2742 148.025C86.9774 148.025 88.6108 147.349 89.8152 146.145C91.0195 144.94 91.6961 143.307 91.6961 141.604C91.6961 139.9 91.0195 138.267 89.8152 137.063C88.6108 135.858 86.9774 135.182 85.2742 135.182Z" fill="white"/>
<path d="M538.594 133.547C536.281 134.891 533.891 135.891 531.422 136.547C528.984 137.234 526.484 137.578 523.922 137.578C515.797 137.578 509.438 135.141 504.844 130.266C500.281 125.391 498 118.641 498 110.016C498 101.391 500.281 94.6406 504.844 89.7656C509.438 84.8906 515.797 82.4531 523.922 82.4531C526.453 82.4531 528.922 82.7812 531.328 83.4375C533.734 84.0938 536.156 85.1094 538.594 86.4844V95.5312C536.312 93.5 534.016 92.0312 531.703 91.125C529.422 90.2188 526.828 89.7656 523.922 89.7656C518.516 89.7656 514.359 91.5156 511.453 95.0156C508.547 98.5156 507.094 103.516 507.094 110.016C507.094 116.484 508.547 121.484 511.453 125.016C514.391 128.516 518.547 130.266 523.922 130.266C526.922 130.266 529.609 129.812 531.984 128.906C534.359 127.969 536.562 126.531 538.594 124.594V133.547Z" fill="white"/>
<path d="M595.969 103.688V136.219H587.297V103.688C587.297 98.9688 586.469 95.5 584.812 93.2812C583.156 91.0625 580.562 89.9531 577.031 89.9531C573 89.9531 569.891 91.3906 567.703 94.2656C565.547 97.1094 564.469 101.203 564.469 106.547V136.219H555.844V63.2812H564.469V91.5938C566 88.5938 568.078 86.3281 570.703 84.7969C573.328 83.2344 576.438 82.4531 580.031 82.4531C585.375 82.4531 589.359 84.2188 591.984 87.75C594.641 91.25 595.969 96.5625 595.969 103.688Z" fill="white"/>
<path d="M634.594 109.828C629.562 109.828 625.766 110.719 623.203 112.5C620.672 114.25 619.406 116.875 619.406 120.375C619.406 123.531 620.359 125.984 622.266 127.734C624.172 129.484 626.812 130.359 630.188 130.359C634.938 130.359 638.672 128.719 641.391 125.438C644.109 122.125 645.484 117.562 645.516 111.75V109.828H634.594ZM654.188 106.266V136.219H645.516V128.438C643.672 131.562 641.344 133.875 638.531 135.375C635.75 136.844 632.359 137.578 628.359 137.578C623.016 137.578 618.75 136.078 615.562 133.078C612.375 130.047 610.781 126 610.781 120.938C610.781 115.094 612.734 110.656 616.641 107.625C620.578 104.594 626.344 103.078 633.938 103.078H645.516V101.719C645.484 97.5312 644.422 94.5 642.328 92.625C640.234 90.7188 636.891 89.7656 632.297 89.7656C629.359 89.7656 626.391 90.1875 623.391 91.0312C620.391 91.875 617.469 93.1094 614.625 94.7344V86.1094C617.812 84.8906 620.859 83.9844 623.766 83.3906C626.703 82.7656 629.547 82.4531 632.297 82.4531C636.641 82.4531 640.344 83.0938 643.406 84.375C646.5 85.6562 649 87.5781 650.906 90.1406C652.094 91.7031 652.938 93.6406 653.438 95.9531C653.938 98.2344 654.188 101.672 654.188 106.266Z" fill="white"/>
<path d="M716.531 94.5469C714.688 93.1094 712.812 92.0625 710.906 91.4062C709 90.75 706.906 90.4219 704.625 90.4219C699.25 90.4219 695.141 92.1094 692.297 95.4844C689.453 98.8594 688.031 103.734 688.031 110.109V136.219H679.359V83.7188H688.031V93.9844C689.469 90.2656 691.672 87.4219 694.641 85.4531C697.641 83.4531 701.188 82.4531 705.281 82.4531C707.406 82.4531 709.391 82.7188 711.234 83.25C713.078 83.7812 714.844 84.6094 716.531 85.7344V94.5469Z" fill="white"/>
<path d="M753.938 117.234C753.938 121.109 754.641 124.031 756.047 126C757.484 127.969 759.594 128.953 762.375 128.953H772.453V136.219H761.531C756.375 136.219 752.375 134.578 749.531 131.297C746.719 127.984 745.312 123.297 745.312 117.234V69.75H731.484V63H753.938V117.234Z" fill="white"/>
<path d="M792.891 83.9062H814.969V129.516H832.078V136.219H789.234V129.516H806.344V90.6094H792.891V83.9062ZM806.344 63.5156H814.969V74.3906H806.344V63.5156Z" fill="white"/>
<path d="M888.422 105.656V109.875H851.062V110.156C850.812 117.312 852.172 122.453 855.141 125.578C858.141 128.703 862.359 130.266 867.797 130.266C870.547 130.266 873.422 129.828 876.422 128.953C879.422 128.078 882.625 126.75 886.031 124.969V133.547C882.75 134.891 879.578 135.891 876.516 136.547C873.484 137.234 870.547 137.578 867.703 137.578C859.547 137.578 853.172 135.141 848.578 130.266C843.984 125.359 841.688 118.609 841.688 110.016C841.688 101.641 843.938 94.9531 848.438 89.9531C852.938 84.9531 858.938 82.4531 866.438 82.4531C873.125 82.4531 878.391 84.7188 882.234 89.25C886.109 93.7812 888.172 99.25 888.422 105.656ZM879.797 103.125C879.422 99.5 878.094 96.375 875.812 93.75C873.562 91.0938 870.312 89.7656 866.062 89.7656C861.906 89.7656 858.484 91.1406 855.797 93.8906C853.109 96.6406 851.641 99.7344 851.391 103.172L879.797 103.125Z" fill="white"/>
<path d="M898.547 102.281H948.234V110.203H898.547V102.281Z" fill="white"/>
<path d="M1001.44 63.2812V70.4531H991.641C988.547 70.4531 986.391 71.0938 985.172 72.375C983.984 73.625 983.391 75.8594 983.391 79.0781V83.7188H1001.44V90.4219H983.391V136.219H974.766V90.4219H960.75V83.7188H974.766V80.0625C974.766 74.3125 976.078 70.0781 978.703 67.3594C981.359 64.6406 985.484 63.2812 991.078 63.2812H1001.44Z" fill="white"/>
<path d="M1038.33 89.7656C1033.95 89.7656 1030.64 91.4688 1028.39 94.875C1026.14 98.2812 1025.02 103.328 1025.02 110.016C1025.02 116.672 1026.14 121.719 1028.39 125.156C1030.64 128.562 1033.95 130.266 1038.33 130.266C1042.73 130.266 1046.06 128.562 1048.31 125.156C1050.56 121.719 1051.69 116.672 1051.69 110.016C1051.69 103.328 1050.56 98.2812 1048.31 94.875C1046.06 91.4688 1042.73 89.7656 1038.33 89.7656ZM1038.33 82.4531C1045.61 82.4531 1051.17 84.8125 1055.02 89.5312C1058.89 94.25 1060.83 101.078 1060.83 110.016C1060.83 118.984 1058.91 125.828 1055.06 130.547C1051.22 135.234 1045.64 137.578 1038.33 137.578C1031.05 137.578 1025.48 135.234 1021.64 130.547C1017.8 125.828 1015.88 118.984 1015.88 110.016C1015.88 101.078 1017.8 94.25 1021.64 89.5312C1025.48 84.8125 1031.05 82.4531 1038.33 82.4531Z" fill="white"/>
<path d="M1121.44 94.5469C1119.59 93.1094 1117.72 92.0625 1115.81 91.4062C1113.91 90.75 1111.81 90.4219 1109.53 90.4219C1104.16 90.4219 1100.05 92.1094 1097.2 95.4844C1094.36 98.8594 1092.94 103.734 1092.94 110.109V136.219H1084.27V83.7188H1092.94V93.9844C1094.38 90.2656 1096.58 87.4219 1099.55 85.4531C1102.55 83.4531 1106.09 82.4531 1110.19 82.4531C1112.31 82.4531 1114.3 82.7188 1116.14 83.25C1117.98 83.7812 1119.75 84.6094 1121.44 85.7344V94.5469Z" fill="white"/>
<path d="M1136.2 63.2812H1145.11V105.516L1167.75 83.7188H1178.25L1157.58 103.5L1181.48 136.219H1170.94L1151.53 109.125L1145.11 115.172V136.219H1136.2V63.2812Z" fill="white"/>
<path d="M1235.48 105.656V109.875H1198.12V110.156C1197.88 117.312 1199.23 122.453 1202.2 125.578C1205.2 128.703 1209.42 130.266 1214.86 130.266C1217.61 130.266 1220.48 129.828 1223.48 128.953C1226.48 128.078 1229.69 126.75 1233.09 124.969V133.547C1229.81 134.891 1226.64 135.891 1223.58 136.547C1220.55 137.234 1217.61 137.578 1214.77 137.578C1206.61 137.578 1200.23 135.141 1195.64 130.266C1191.05 125.359 1188.75 118.609 1188.75 110.016C1188.75 101.641 1191 94.9531 1195.5 89.9531C1200 84.9531 1206 82.4531 1213.5 82.4531C1220.19 82.4531 1225.45 84.7188 1229.3 89.25C1233.17 93.7812 1235.23 99.25 1235.48 105.656ZM1226.86 103.125C1226.48 99.5 1225.16 96.375 1222.88 93.75C1220.62 91.0938 1217.38 89.7656 1213.12 89.7656C1208.97 89.7656 1205.55 91.1406 1202.86 93.8906C1200.17 96.6406 1198.7 99.7344 1198.45 103.172L1226.86 103.125Z" fill="white"/>
<path d="M1281.05 90.4219V63.2812H1289.67V136.219H1281.05V129.609C1279.61 132.203 1277.69 134.188 1275.28 135.562C1272.91 136.906 1270.16 137.578 1267.03 137.578C1260.69 137.578 1255.69 135.125 1252.03 130.219C1248.41 125.281 1246.59 118.484 1246.59 109.828C1246.59 101.297 1248.42 94.6094 1252.08 89.7656C1255.73 84.8906 1260.72 82.4531 1267.03 82.4531C1270.19 82.4531 1272.97 83.1406 1275.38 84.5156C1277.78 85.8594 1279.67 87.8281 1281.05 90.4219ZM1255.69 110.016C1255.69 116.703 1256.75 121.75 1258.88 125.156C1261 128.562 1264.14 130.266 1268.3 130.266C1272.45 130.266 1275.61 128.547 1277.77 125.109C1279.95 121.672 1281.05 116.641 1281.05 110.016C1281.05 103.359 1279.95 98.3281 1277.77 94.9219C1275.61 91.4844 1272.45 89.7656 1268.3 89.7656C1264.14 89.7656 1261 91.4688 1258.88 94.875C1256.75 98.2812 1255.69 103.328 1255.69 110.016Z" fill="white"/>
</svg>
